<?xml version="1.0" standalone="no"?>
<!DOCTYPE svg PUBLIC "-//W3C//DTD SVG 20010904//EN"
 "http://www.w3.org/TR/2001/REC-SVG-20010904/DTD/svg10.dtd">
<svg version="1.0" xmlns="http://www.w3.org/2000/svg"
 width="700.000000pt" height="700.000000pt" viewBox="0 0 700.000000 700.000000"
 preserveAspectRatio="xMidYMid meet">
<metadata>
Created by potrace 1.11, written by Peter Selinger 2001-2013
</metadata>
<g transform="translate(0.000000,700.000000) scale(0.100000,-0.100000)"
fill="#000000" stroke="none">
<path d="M782 6227 c-52 -10 -99 -58 -109 -110 -5 -21 -8 -178 -7 -347 l1
-309 27 -36 c56 -73 -215 -67 2821 -67 2552 0 2735 1 2769 17 20 9 46 34 58
54 23 35 23 42 24 359 1 310 0 326 -20 365 -12 23 -36 50 -55 61 -33 19 -78
19 -2751 20 -1495 1 -2736 -3 -2758 -7z"/>
<path d="M753 4699 c-41 -8 -82 -38 -101 -73 -14 -27 -16 -73 -17 -355 -2
-309 -1 -326 19 -364 12 -23 36 -49 54 -59 31 -17 162 -18 2770 -18 1691 -1
2747 2 2762 8 39 15 79 61 87 101 3 20 7 176 7 346 l-1 310 -24 37 c-13 21
-40 45 -59 54 -32 16 -238 17 -2752 18 -1494 1 -2730 -2 -2745 -5z"/>
<path d="M771 3163 c-48 -17 -89 -61 -98 -108 -9 -44 -9 -603 0 -647 8 -39 37
-75 76 -94 32 -15 142 -17 1337 -17 1257 0 1304 1 1335 19 17 11 41 32 53 47
20 28 21 38 21 372 0 334 -1 344 -21 372 -12 15 -35 36 -51 46 -28 16 -111 17
-1324 20 -980 1 -1302 -1 -1328 -10z"/>
<path d="M774 1639 c-64 -8 -102 -33 -124 -81 -15 -34 -17 -77 -16 -361 1
-305 2 -324 21 -357 12 -19 36 -43 54 -54 34 -19 66 -20 2791 -20 2722 0 2757
0 2791 20 19 11 43 38 55 61 20 39 21 55 20 365 -1 317 -1 324 -24 359 -12 20
-38 45 -58 54 -34 16 -216 17 -2748 18 -1491 1 -2734 -1 -2762 -4z"/>
</g>
</svg>
