<svg xmlns="http://www.w3.org/2000/svg" xmlns:xlink="http://www.w3.org/1999/xlink" viewBox="0 0 1814 461">
  <defs>
    <style>
      .cls-1 {
        fill: none;
      }

      .cls-2 {
        clip-path: url(#clip-Web_1920_1);
      }

      .cls-3 {
        clip-path: url(#clip-path);
      }

      .cls-4 {
        fill: rgba(0,0,0,0);
      }

      .cls-4, .cls-5 {
        fill-rule: evenodd;
      }

      .cls-6 {
        fill: #fff;
      }
    </style>
    <clipPath id="clip-path">
      <path id="Pfad_8" data-name="Pfad 8" class="cls-1" d="M0,0H1935.44V569.247H0Z"/>
    </clipPath>
    <clipPath id="clip-Web_1920_1">
      <rect width="1814" height="461"/>
    </clipPath>
  </defs>
  <g id="Web_1920_1" data-name="Web 1920 – 1" class="cls-2">
    <rect class="cls-6" width="1814" height="461"/>
    <g id="logo-wide" class="cls-3" transform="translate(-32 -54)">
      <path id="Pfad_1" data-name="Pfad 1" class="cls-4" d="M0,0H1935.44V569.247H0Z"/>
      <path id="Pfad_2" data-name="Pfad 2" class="cls-5" d="M75.817,66.083h0a12.318,12.318,0,0,1,12.32-12.315H545.1a12.318,12.318,0,0,1,12.32,12.315v49.259a12.318,12.318,0,0,1-12.32,12.315H88.137a12.318,12.318,0,0,1-12.32-12.315Z" transform="translate(-44)"/>
      <path id="Pfad_3" data-name="Pfad 3" class="cls-5" d="M73.005,195.358h0A12.315,12.315,0,0,1,85.32,183.043H542.107a12.315,12.315,0,0,1,12.315,12.315v49.259a12.315,12.315,0,0,1-12.315,12.315H85.32a12.315,12.315,0,0,1-12.315-12.315Z" transform="translate(-41)"/>
      <path id="Pfad_4" data-name="Pfad 4" class="cls-5" d="M75.818,324.632h0a12.315,12.315,0,0,1,12.315-12.315H302.778a12.315,12.315,0,0,1,12.315,12.315v49.259a12.315,12.315,0,0,1-12.315,12.315H88.133a12.315,12.315,0,0,1-12.315-12.315Z" transform="translate(-44)"/>
      <path id="Pfad_5" data-name="Pfad 5" class="cls-5" d="M73.005,453.906h0a12.279,12.279,0,0,1,12.243-12.315H542.18a12.207,12.207,0,0,1,8.657,3.607,12.352,12.352,0,0,1,3.586,8.708v49.259a12.279,12.279,0,0,1-12.243,12.315H85.249a12.279,12.279,0,0,1-12.243-12.315Z" transform="translate(-41)"/>
      <path id="Pfad_6" data-name="Pfad 6" class="cls-4" d="M600.165,53.773h1351.28v461.7H600.165Z" transform="translate(-149 -54)"/>
      <path id="Pfad_7" data-name="Pfad 7" d="M702.165,220.623q22,0,38.328,7.5a67.33,67.33,0,0,1,26.344,20.828q2.656,4.344,2.656,7.672,0,5.672-5.328,9a10.655,10.655,0,0,1-6.328,1.672,15.312,15.312,0,0,1-11.672-5q-16.328-18.672-44.672-18.672-18.328,0-29.328,7.5t-11,18.828q0,12,10.328,19.172,10.344,7.172,36.672,11.5,35.672,6,51,19.5t15.328,33.5a43.813,43.813,0,0,1-9.172,27.328q-9.156,12-25.5,18.672-16.328,6.672-36.984,6.672a113.844,113.844,0,0,1-39.672-7q-19-7-30.672-19.672-3.328-4-3.328-7.672,0-5.656,5.328-10a13.722,13.722,0,0,1,8.344-3,12.287,12.287,0,0,1,9.656,4.672q8,9.328,21.172,14.328a81.612,81.612,0,0,0,29.172,5q23.328,0,34.984-8,11.672-8,12.016-21,0-12-11.672-20t-37-12q-32.672-5.328-48.844-18.484-16.156-13.172-16.156-31.844,0-24.328,18.828-37.656,18.844-13.344,47.172-13.344Zm259.32,2.672q7.672,3,7.672,9.672a14.715,14.715,0,0,1-1.328,6l-108,237.328q-3,7.656-9.672,7.656a13.3,13.3,0,0,1-6-1.328q-7.656-3-7.656-10a14.715,14.715,0,0,1,1.328-6l33-73v-.328l-74.328-154a13.166,13.166,0,0,1-1.344-6q0-7,7.344-10a13.232,13.232,0,0,1,6-1.328q7,0,10,7l65,136.984,62-136.656q3.328-7.328,9.984-7.328a14.715,14.715,0,0,1,6,1.328Zm103.008-2.672q22,0,38.328,7.5a67.329,67.329,0,0,1,26.344,20.828q2.656,4.344,2.656,7.672,0,5.672-5.328,9a10.655,10.655,0,0,1-6.328,1.672,15.312,15.312,0,0,1-11.672-5q-16.328-18.672-44.672-18.672-18.328,0-29.328,7.5t-11,18.828q0,12,10.328,19.172,10.344,7.172,36.672,11.5,35.672,6,51,19.5t15.328,33.5a43.813,43.813,0,0,1-9.172,27.328q-9.156,12-25.5,18.672-16.328,6.672-36.984,6.672a113.844,113.844,0,0,1-39.672-7q-19-7-30.672-19.672-3.328-4-3.328-7.672,0-5.656,5.328-10a13.722,13.722,0,0,1,8.344-3,12.287,12.287,0,0,1,9.656,4.672q8,9.328,21.172,14.328a81.612,81.612,0,0,0,29.172,5q23.328,0,34.984-8,11.672-8,12.016-21,0-12-11.672-20t-37-12q-32.672-5.328-48.844-18.484-16.156-13.172-16.156-31.844,0-24.328,18.828-37.656,18.844-13.344,47.172-13.344Zm109.992-63.656a12.091,12.091,0,0,1,3.672-9.172,12.552,12.552,0,0,1,9-3.5,12.015,12.015,0,0,1,12.672,12.672V346.951q0,14.344,5.828,23.344t14.828,9h8.344a10.008,10.008,0,0,1,8,3.5,13.578,13.578,0,0,1,3,9.156,11.394,11.394,0,0,1-4.172,9.172q-4.172,3.5-10.828,3.5h-4.344q-20.328,0-33.172-16.156-12.828-16.172-12.828-41.516V156.967Zm183.67,63.656q26.328,0,47.328,12a87.579,87.579,0,0,1,33.156,33.344q12.172,21.328,12.172,47.656t-12,47.5a86.455,86.455,0,0,1-33.172,33.172q-21.156,12-47.484,12t-47.5-12a86.455,86.455,0,0,1-33.172-33.172q-12-21.172-12-47.5t12-47.656a86.121,86.121,0,0,1,33.172-33.344Q1331.827,220.623,1358.155,220.623Zm0,23.328a67.45,67.45,0,0,0-34.5,9,64.573,64.573,0,0,0-24.344,24.844q-8.828,15.828-8.828,35.828a71.624,71.624,0,0,0,8.828,35.5,64.6,64.6,0,0,0,24.344,24.828,67.45,67.45,0,0,0,34.5,9q19.328,0,34.656-9a63.6,63.6,0,0,0,24-24.828,72.65,72.65,0,0,0,8.672-35.5q0-20-8.672-35.828a63.571,63.571,0,0,0-24-24.844Q1377.483,243.951,1358.155,243.951Zm220.663-23.328q41.672,0,67.656,32a10.2,10.2,0,0,1,2.672,7q0,5.328-5.672,9.328a11.225,11.225,0,0,1-6.328,2q-5,0-9.656-5a68.159,68.159,0,0,0-22-16.5,63.266,63.266,0,0,0-26.672-5.5q-18.328,0-32.672,8.844a58.816,58.816,0,0,0-22.172,24.828q-7.828,16-7.828,36,0,19.672,8.328,35.5a62.142,62.142,0,0,0,23.344,24.828q15,9,34.328,9,26.672,0,43-14.328a13.829,13.829,0,0,1,9-3.672,11.44,11.44,0,0,1,7.328,2.672q4.672,4,4.672,9a9.5,9.5,0,0,1-3.328,7.328q-24,22.344-60.672,22.344-26,0-46.672-12.172a87.689,87.689,0,0,1-32.5-33.328q-11.828-21.172-11.828-47.172,0-26.672,11.328-47.828a84.279,84.279,0,0,1,31.344-33.172q20-12,45-12Zm203.663,0q26.328,0,47.328,12a87.579,87.579,0,0,1,33.156,33.344q12.172,21.328,12.172,47.656t-12,47.5a86.455,86.455,0,0,1-33.172,33.172q-21.156,12-47.484,12t-47.5-12a86.455,86.455,0,0,1-33.172-33.172q-12-21.172-12-47.5t12-47.656a86.121,86.121,0,0,1,33.172-33.344Q1756.153,220.623,1782.481,220.623Zm0,23.328a67.45,67.45,0,0,0-34.5,9,64.573,64.573,0,0,0-24.344,24.844q-8.828,15.828-8.828,35.828a71.624,71.624,0,0,0,8.828,35.5,64.6,64.6,0,0,0,24.344,24.828,67.45,67.45,0,0,0,34.5,9q19.328,0,34.656-9a63.6,63.6,0,0,0,24-24.828,72.65,72.65,0,0,0,8.672-35.5q0-20-8.672-35.828a63.571,63.571,0,0,0-24-24.844Q1801.809,243.951,1782.481,243.951Z" transform="translate(-29 -29)"/>
    </g>
  </g>
</svg>
