<svg version="1.1" viewBox="0.0 0.0 1133.8582677165355 1133.8582677165355" fill="none" stroke="none" stroke-linecap="square" stroke-miterlimit="10" xmlns:xlink="http://www.w3.org/1999/xlink" xmlns="http://www.w3.org/2000/svg"><clipPath id="p.0"><path d="m0 0l1133.8583 0l0 1133.8583l-1133.8583 0l0 -1133.8583z" clip-rule="nonzero"/></clipPath><g clip-path="url(#p.0)"><path fill="#000000" fill-opacity="0.0" d="m0 0l1133.8583 0l0 1133.8583l-1133.8583 0z" fill-rule="evenodd"/><path fill="#000000" d="m107.98819 147.80756l0 0c0 -13.046356 10.576164 -23.62252 23.622513 -23.62252l876.0305 0c6.2651367 0 12.27356 2.4888 16.703613 6.9188766c4.430176 4.430084 6.9189453 10.438568 6.9189453 16.703644l0 94.48724c0 13.046356 -10.576172 23.622528 -23.622559 23.622528l-876.0305 0c-13.046349 0 -23.622513 -10.576172 -23.622513 -23.622528z" fill-rule="evenodd"/><path fill="#000000" d="m102.59599 395.7275l0 0c0 -13.046356 10.576164 -23.622528 23.62252 -23.622528l876.0306 0c6.2650757 0 12.27356 2.4888 16.703613 6.9188843c4.4301147 4.430084 6.9188843 10.438568 6.9188843 16.703644l0 94.48724c0 13.046356 -10.576172 23.622528 -23.622498 23.622528l-876.0306 0c-13.046356 0 -23.62252 -10.576172 -23.62252 -23.622528z" fill-rule="evenodd"/><path fill="#000000" d="m107.989426 643.6461l0 0c0 -13.046326 10.576164 -23.622498 23.622528 -23.622498l411.68408 0c6.2650757 0 12.27356 2.4887695 16.703674 6.9188843c4.4300537 4.4300537 6.9188843 10.438538 6.9188843 16.703613l0 94.48724c0 13.046387 -10.576172 23.622559 -23.622559 23.622559l-411.68408 0c-13.046364 0 -23.622528 -10.576172 -23.622528 -23.622559z" fill-rule="evenodd"/><path fill="#000000" d="m102.59622 891.56476l0 0c0 -13.046326 10.576157 -23.622498 23.62252 -23.622498l881.4164 0c6.2650757 0 12.27356 2.4887695 16.703613 6.9188843c4.4300537 4.4300537 6.9189453 10.438538 6.9189453 16.703613l0 94.48724c0 13.046387 -10.576233 23.622559 -23.622559 23.622559l-881.4164 0c-13.046364 0 -23.62252 -10.576172 -23.62252 -23.622559z" fill-rule="evenodd"/></g></svg>